{"title":"Rogue Male (1976) DVDRip XviD","uid":7543002,"size":732699070,"categoryP":"video","categoryS":"movies","magnet":"?xt=urn:btih:6bb84f218b9aa20cbcc2e33c92118f52133f2a83&amp;dn=Rogue+Male+%281976%29+DVDRip+XviD&amp;tr=udp%3A%2F%2Ftracker.openbittorrent.com%3A80&amp;tr=udp%3A%2F%2Fopen.demonii.com%3A1337&amp;tr=udp%3A%2F%2Ftracker.coppersurfer.tk%3A6969&amp;tr=udp%3A%2F%2Fexodus.desync.com%3A6969","seeders":0,"leechers":0,"uploader":"dariuskzoot","files":-1,"time":1345267266,"description":"Rogue Male (1977)\n\n\nDirector: Clive Donner\nWriters: Frederic Raphael, Geoffrey Household (novel)\nStars: Peter O'Toole, John Standing and Alastair Sim \nGenres: Drama | Thriller \n\nEarly in 1939 Sir Robert Thorndyke takes aim at Adolf Hitler with a high powered rifle, but the shot misses its mark. Captured and tortured by the Gestapo and left for dead, Sir Robert makes his way back to England where he discovers the Gestapo has followed him. Knowing that his government would turn him over to German authorities, Sir Robert goes underground in his battle with his pursuers.\n &lt;a href=&quot;\nhttp://bayimg.com/aAbgmaAee&quot; rel=&quot;nofollow&quot; target=&quot;_NEW&quot;&gt;\nhttp://bayimg.com/aAbgmaAee&lt;/a&gt;\n\nGeneral\nComplete name                            : Rogue Male (1976) DVDRip XviD.avi\nFormat                                   : AVI\nFormat/Info                              : Audio Video Interleave\nFile size                                : 699 MiB\nDuration                                 : 1h 42mn\nOverall bit rate                         : 949 Kbps\nWriting application                      : VirtualDubMod 1.5.10.1 (build 2366/release)\nWriting library                          : VirtualDubMod build 2366/release\n\nVideo\nID                                       : 0\nFormat                                   : MPEG-4 Visual\nFormat settings, BVOP                    : 1\nFormat settings, QPel                    : No\nFormat settings, GMC                     : No warppoints\nFormat settings, Matrix                  : Default (H.263)\nMuxing mode                              : Packed bitstream\nCodec ID                                 : DX50\nCodec ID/Hint                            : DivX 5\nDuration                                 : 1h 42mn\nBit rate                                 : 842 Kbps\nWidth                                    : 512 pixels\nHeight                                   : 384 pixels\nDisplay aspect ratio                     : 4:3\nFrame rate                               : 29.970 fps\nColor space                              : YUV\nChroma subsampling                       : 4:2:0\nBit depth                                : 8 bits\nScan type                                : Progressive\nCompression mode                         : Lossy\nBits/(Pixel*Frame)                       : 0.143\nStream size                              : 620 MiB (89%)\nWriting library                          : DivX 5.1.1 (Maupiti) (UTC 2003-11-19)\n\nAudio\nID                                       : 1\nFormat                                   : MPEG Audio\nFormat version                           : Version 1\nFormat profile                           : Layer 3\nMode                                     : Joint stereo\nMode extension                           : Intensity Stereo\nCodec ID                                 : 55\nCodec ID/Hint                            : MP3\nDuration                                 : 1h 42mn\nBit rate mode                            : Constant\nBit rate                                 : 96.0 Kbps\nChannel(s)                               : 2 channels\nSampling rate                            : 32.0 KHz\nCompression mode                         : Lossy\nStream size                              : 70.7 MiB (10%)\nAlignment                                : Aligned on interleaves\nInterleave, duration                     : 36 ms (1.08 video frame)\nInterleave, preload duration             : 504 ms\n","torrent":{"xt":"urn:btih:6bb84f218b9aa20cbcc2e33c92118f52133f2a83","amp;dn":"Rogue+Male+%281976%29+DVDRip+XviD","amp;tr":["udp%3A%2F%2Ftracker.openbittorrent.com%3A80","udp%3A%2F%2Fopen.demonii.com%3A1337","udp%3A%2F%2Ftracker.coppersurfer.tk%3A6969","udp%3A%2F%2Fexodus.desync.com%3A6969"],"infoHash":"6bb84f218b9aa20cbcc2e33c92118f52133f2a83","infoHashBuffer":{"type":"Buffer","data":[107,184,79,33,139,154,162,12,188,194,227,60,146,17,143,82,19,63,42,131]},"announce":[],"urlList":[]}}